 <svg  version="1.0" xmlns="http://www.w3.org/2000/svg"  width="142.000000pt" height="104.000000pt" viewBox="0 0 142.000000 104.000000"  preserveAspectRatio="xMidYMid meet">  <g transform="translate(0.000000,104.000000) scale(0.050000,-0.050000)" fill="#ff8000" stroke="none"> <path d="M1353 1967 c-7 -8 -13 -110 -13 -227 l0 -214 73 3 73 2 3 200 c2 109 0 210 -5 224 -9 26 -107 35 -131 12z"/> <path d="M1085 1856 c-42 -21 -75 -456 -34 -456 5 0 41 13 78 28 l68 29 1 211 c1 230 -5 240 -113 188z"/> <path d="M1635 1865 c-6 -12 -3 -387 3 -427 3 -15 97 -58 128 -58 17 0 23 60 22 215 l-2 214 -58 34 c-67 39 -83 43 -93 22z"/> <path d="M811 1742 l-59 -34 -5 -214 c-2 -118 1 -214 8 -214 7 0 42 11 79 24 l66 24 3 196 c2 108 4 207 5 219 3 37 -33 37 -97 -1z"/> <path d="M1934 1726 c-5 -9 -8 -108 -7 -221 l3 -205 66 -40 c83 -51 87 -41 80 207 -6 194 -6 195 -69 235 -35 22 -68 33 -73 24z"/> <path d="M495 1612 c-57 -43 -50 -279 9 -321 87 -60 96 -44 96 159 0 203 -17 229 -105 162z"/> <path d="M2219 1575 c-6 -48 -2 -379 5 -386 5 -5 43 4 83 21 l73 31 0 139 c0 134 -2 140 -59 169 -53 28 -100 40 -102 26z"/> <path d="M215 1514 c-67 -26 -69 -42 -11 -83 77 -54 116 -40 116 39 0 75 -13 80 -105 44z"/> <path d="M2500 1381 c0 -74 26 -90 93 -57 73 35 77 61 13 91 -83 39 -106 31 -106 -34z"/> <path d="M1226 1325 c-40 -32 -43 -54 -45 -268 l-2 -234 61 -43 c97 -69 102 -55 102 270 1 328 -12 358 -116 275z"/> <path d="M1480 1050 c0 -330 2 -335 97 -282 46 25 47 35 50 271 3 264 4 259 -62 296 -82 46 -85 37 -85 -285z"/> <path d="M965 1224 c-102 -49 -100 -260 3 -309 84 -40 85 -37 72 177 l-10 163 -65 -31z"/> <path d="M1776 1047 c-7 -192 4 -209 102 -158 97 50 93 228 -5 289 -93 58 -89 62 -97 -131z"/> <path d="M653 1089 c-8 -20 5 -37 39 -50 68 -26 68 -26 68 31 0 58 -87 73 -107 19z"/> <path d="M2060 1031 c0 -60 17 -71 75 -49 79 30 39 96 -60 98 -8 0 -15 -22 -15 -49z"/> <path d="M520 894 c-132 -61 -74 -374 69 -374 6 0 11 90 11 200 0 110 -7 199 -15 199 -8 -1 -37 -12 -65 -25z"/> <path d="M740 660 l0 -219 80 -41 80 -41 0 227 0 227 -71 33 c-39 19 -75 34 -80 34 -5 0 -9 -99 -9 -220z"/> <path d="M2214 655 c5 -201 13 -213 105 -166 92 48 94 273 2 320 -106 55 -111 48 -107 -154z"/> <path d="M1975 789 c-55 -30 -55 -32 -55 -238 0 -231 4 -240 90 -192 l60 34 6 214 c6 231 2 238 -101 182z"/> <path d="M222 775 c-68 -35 -70 -61 -8 -90 88 -41 109 -32 102 38 -7 74 -28 86 -94 52z"/> <path d="M1040 502 l0 -217 59 -25 c33 -13 66 -25 74 -27 36 -7 10 431 -27 459 -92 69 -106 44 -106 -190z"/> <path d="M2513 707 c-21 -22 -15 -123 9 -138 12 -7 32 -3 44 9 12 12 38 22 58 22 61 0 40 51 -39 95 -52 29 -54 29 -72 12z"/> <path d="M1685 670 l-65 -28 0 -221 0 -222 72 31 c40 16 76 30 80 30 5 0 8 99 8 220 0 121 -7 220 -15 219 -8 0 -44 -13 -80 -29z"/> <path d="M1339 564 c-19 -310 2 -444 71 -444 68 0 75 21 75 247 l0 203 -73 4 c-39 2 -72 -2 -73 -10z"/> </g> </svg> 