 <svg  version="1.0" xmlns="http://www.w3.org/2000/svg"  width="900.000000pt" height="462.000000pt" viewBox="0 0 900.000000 462.000000"  preserveAspectRatio="xMidYMid meet">  <g transform="translate(0.000000,462.000000) scale(0.100000,-0.100000)" fill="#ff8000" stroke="none"> <path d="M4453 3800 c-13 -5 -23 -17 -24 -27 0 -10 -1 -119 -2 -243 -1 -124 -5 -232 -10 -240 -4 -9 -2 -24 7 -35 13 -19 16 -19 49 -3 30 14 38 15 62 2 41 -21 64 -18 71 11 3 14 3 33 -1 42 -4 10 -6 117 -6 238 1 171 -2 225 -12 239 -16 22 -99 32 -134 16z"/> <path d="M4110 3655 l-65 -34 -1 -138 c0 -76 -2 -193 -4 -261 -2 -71 1 -127 7 -133 10 -10 146 51 159 72 4 7 9 110 10 229 1 118 4 233 6 255 3 36 1 40 -22 42 -14 1 -54 -13 -90 -32z"/> <path d="M4799 3673 c-1 -9 -1 -523 0 -536 1 -4 11 -11 24 -16 13 -5 41 -21 62 -36 26 -17 50 -25 70 -23 28 3 30 5 27 38 -7 69 -7 416 0 447 7 31 6 32 -82 82 -94 53 -99 56 -101 44z"/> <path d="M3782 3526 c-16 -15 -37 -26 -45 -26 -57 0 -80 -45 -66 -129 6 -41 6 -109 -2 -213 -18 -232 -19 -212 19 -216 20 -2 41 3 50 11 10 9 36 23 60 32 23 10 42 20 43 24 0 3 3 107 5 231 3 124 6 243 7 265 2 34 -1 40 -19 43 -12 2 -35 -8 -52 -22z"/> <path d="M5179 3496 c-3 -3 -4 -128 -3 -278 l2 -273 38 -20 c22 -12 54 -30 72 -40 42 -25 69 -12 63 31 -2 16 -4 134 -5 261 l-1 233 -29 12 c-16 6 -49 27 -73 45 -42 32 -55 38 -64 29z"/> <path d="M3370 3356 l-75 -33 0 -169 0 -168 32 -21 c18 -11 49 -30 68 -42 72 -45 70 -52 69 219 0 142 -4 243 -10 245 -5 1 -43 -13 -84 -31z"/> <path d="M5544 3285 c-4 -9 -2 -47 5 -85 15 -94 14 -203 -4 -295 -15 -79 -13 -95 8 -95 17 0 161 72 169 84 4 6 7 80 7 165 1 156 -5 181 -37 181 -8 0 -29 11 -46 24 -43 32 -94 43 -102 21z"/> <path d="M3048 3234 c-4 -4 -31 -14 -60 -24 -44 -14 -53 -21 -53 -41 0 -20 12 -30 65 -56 97 -48 105 -44 105 47 0 73 -1 75 -25 78 -14 2 -29 0 -32 -4z"/> <path d="M5917 3113 c-4 -3 -7 -32 -7 -63 0 -67 15 -86 57 -75 37 9 111 43 117 54 8 13 -4 41 -18 41 -6 0 -32 11 -58 25 -47 25 -78 31 -91 18z"/> <path d="M4358 3020 c-15 -4 -37 -15 -50 -24 -12 -9 -30 -16 -40 -16 -30 0 -41 -38 -36 -119 3 -42 2 -175 -2 -296 -9 -248 -17 -219 79 -281 34 -22 64 -34 80 -32 23 3 26 7 23 38 -11 127 -12 546 -2 623 9 69 9 91 0 102 -14 17 -14 17 -52 5z"/> <path d="M4615 3020 c-4 -6 -8 -184 -9 -396 l-1 -384 26 0 c15 0 32 7 39 14 6 8 28 20 48 27 20 6 42 15 48 20 8 6 10 90 8 271 -2 178 1 276 8 302 11 37 11 40 -18 65 -25 21 -108 76 -136 89 -3 2 -9 -2 -13 -8z"/> <path d="M3935 2843 c-38 -19 -72 -37 -74 -39 -3 -3 -5 -240 -2 -281 1 -6 13 -18 29 -26 15 -8 48 -27 75 -42 26 -15 53 -25 60 -22 9 3 12 57 10 218 -1 118 -2 217 -2 222 -2 13 -26 6 -96 -30z"/> <path d="M4994 2834 c-8 -3 -10 -53 -6 -167 3 -101 0 -177 -6 -201 -18 -62 15 -98 57 -63 9 7 36 22 61 32 25 10 50 24 56 31 15 18 13 269 -3 285 -13 13 -45 32 -90 54 -17 8 -34 19 -38 25 -7 11 -13 11 -31 4z"/> <path d="M3568 2708 c-9 -7 -20 -25 -23 -39 -5 -21 -1 -27 20 -37 14 -7 41 -12 60 -12 28 0 36 4 41 24 3 13 4 35 2 47 -2 20 -10 24 -43 27 -22 2 -48 -3 -57 -10z"/> <path d="M5350 2641 c-14 -26 -13 -74 2 -89 25 -25 116 0 120 33 0 8 1 20 2 26 1 9 -85 49 -106 49 -4 0 -12 -9 -18 -19z"/> <path d="M3430 2453 c-8 -3 -26 -14 -39 -24 -13 -11 -34 -19 -47 -19 -49 0 -54 -18 -54 -205 l0 -174 35 -7 c19 -3 40 -13 46 -21 18 -21 66 -44 81 -38 10 4 13 56 12 247 0 141 -4 243 -10 244 -5 1 -16 0 -24 -3z"/> <path d="M3655 2390 c-4 -6 -3 -39 1 -73 9 -69 9 -80 3 -297 l-4 -155 33 -16 c18 -10 50 -29 72 -44 22 -15 48 -25 62 -23 20 3 23 8 20 38 -7 73 -7 387 0 433 l8 47 -68 44 c-73 49 -116 64 -127 46z"/> <path d="M5542 2361 c-11 -7 -11 -23 -2 -89 11 -71 10 -186 -2 -341 -5 -58 19 -62 107 -18 41 20 75 42 76 49 0 7 1 78 3 158 l2 145 -29 28 c-16 15 -35 27 -41 27 -7 0 -27 11 -46 25 -36 27 -47 29 -68 16z"/> <path d="M5260 2305 c-19 -14 -42 -25 -52 -25 -9 0 -20 -6 -25 -12 -4 -7 -9 -114 -11 -238 -2 -124 -4 -243 -5 -265 -2 -49 21 -58 64 -26 16 12 42 24 59 27 53 11 54 18 51 243 -2 128 2 223 8 248 6 23 8 48 5 57 -9 23 -53 19 -94 -9z"/> <path d="M2971 2262 c-29 -15 -53 -32 -53 -37 -1 -6 17 -18 38 -29 22 -10 46 -25 56 -33 9 -8 30 -13 50 -11 31 3 33 5 36 47 5 72 -3 91 -41 91 -17 0 -56 -13 -86 -28z"/> <path d="M4039 2204 c-4 -45 2 -517 6 -525 4 -5 28 -20 54 -33 26 -14 53 -32 60 -40 15 -18 47 -21 56 -6 3 5 1 63 -4 127 -7 75 -8 168 -3 253 5 74 7 140 5 147 -3 6 -18 16 -34 22 -17 6 -38 20 -47 31 -17 21 -91 40 -93 24z"/> <path d="M5917 2183 c-4 -3 -7 -37 -7 -73 0 -87 11 -98 71 -71 24 10 56 24 72 30 47 19 35 45 -40 85 -68 36 -84 41 -96 29z"/> <path d="M4910 2163 c-74 -34 -102 -48 -111 -59 -7 -9 -15 -443 -10 -521 2 -22 33 -14 106 25 l70 37 2 220 c1 121 3 240 5 265 4 52 -7 58 -62 33z"/> <path d="M4416 2014 c-19 -18 -19 -16 -5 -51 14 -34 13 -387 0 -411 -14 -25 15 -71 55 -88 27 -11 43 -12 74 -4 22 6 42 16 46 22 4 6 6 104 5 217 -1 113 2 226 7 251 5 25 7 51 4 58 -5 15 -46 16 -73 1 -16 -8 -29 -7 -54 5 -41 20 -40 20 -59 0z"/> <path d="M1866 1034 c-10 -9 -15 -22 -12 -28 3 -6 17 -40 31 -76 15 -36 32 -78 40 -95 47 -108 55 -153 55 -300 0 -145 0 -145 25 -157 35 -16 71 2 78 39 3 15 1 70 -4 121 -10 88 -9 96 17 170 14 42 32 88 39 102 7 14 16 41 20 60 4 19 16 47 27 62 11 15 22 43 25 62 4 28 1 36 -17 46 -29 15 -66 5 -84 -23 -8 -12 -20 -58 -26 -102 -13 -90 -21 -110 -41 -110 -23 0 -58 85 -59 141 0 60 -20 89 -66 99 -23 4 -36 1 -48 -11z"/> <path d="M2880 1022 c-47 -23 -59 -35 -82 -82 -34 -68 -34 -81 -2 -140 26 -47 52 -69 180 -148 73 -46 94 -105 55 -153 -15 -19 -28 -24 -65 -23 -57 1 -86 24 -86 70 0 40 -22 64 -59 64 -58 0 -68 -56 -22 -133 58 -98 157 -129 254 -77 38 20 51 34 72 81 30 68 31 77 4 138 -21 49 -82 102 -187 162 -99 57 -83 171 23 171 44 0 75 -26 75 -62 0 -70 80 -106 108 -48 11 24 10 34 -18 93 -27 57 -37 69 -74 85 -73 33 -114 33 -176 2z"/> <path d="M3492 1034 c-26 -10 -55 -32 -77 -58 l-35 -43 0 -220 0 -220 30 -39 c37 -47 103 -83 150 -83 44 0 110 34 143 74 49 59 56 152 12 169 -45 17 -75 -8 -75 -63 0 -68 -72 -100 -135 -61 l-35 22 0 197 c0 194 0 198 23 219 16 15 36 22 63 22 59 0 77 -18 84 -81 l5 -54 42 -3 c37 -3 44 0 54 21 15 33 -12 125 -46 157 -52 49 -137 67 -203 44z"/> <path d="M5750 1035 c-15 -19 -21 -640 -5 -656 13 -13 59 -11 73 3 15 15 15 53 0 203 -13 132 -7 178 20 173 25 -5 97 -166 127 -287 21 -83 80 -128 114 -87 17 21 18 631 1 651 -19 23 -57 18 -75 -8 -13 -21 -13 -40 1 -180 15 -146 15 -159 -1 -183 -13 -20 -19 -23 -31 -13 -26 21 -80 155 -113 282 -10 38 -27 77 -37 87 -28 27 -59 33 -74 15z"/> <path d="M6368 1039 c-17 -9 -18 -35 -18 -324 0 -272 2 -316 16 -329 19 -20 44 -20 68 -3 17 13 19 35 18 327 0 289 -2 315 -18 327 -21 15 -43 16 -66 2z"/> <path d="M6722 1041 c-21 -13 -21 -649 -1 -662 22 -14 45 -11 69 9 l23 19 -17 144 c-21 167 -19 204 8 204 22 0 74 -70 86 -116 4 -19 13 -47 18 -64 6 -16 18 -57 28 -90 27 -90 39 -105 85 -105 53 0 59 16 49 132 -4 53 -4 188 0 300 10 219 9 220 -42 232 -38 9 -72 -25 -64 -62 3 -15 10 -89 16 -166 12 -150 7 -172 -33 -157 -16 6 -30 35 -58 116 -21 59 -42 119 -47 134 -6 14 -13 43 -17 64 -8 48 -70 89 -103 68z"/> <path d="M7419 1023 c-39 -20 -60 -39 -76 -68 -21 -38 -23 -52 -23 -244 l0 -204 27 -42 c17 -28 45 -53 78 -71 50 -27 55 -27 107 -15 107 23 144 80 149 226 l4 100 -75 7 c-88 8 -113 -1 -108 -40 2 -19 13 -31 36 -43 19 -8 38 -22 43 -30 15 -24 10 -76 -10 -100 -27 -33 -101 -34 -133 -1 -22 22 -23 28 -23 212 0 186 1 189 24 214 18 19 35 26 61 26 53 0 73 -19 79 -76 6 -44 9 -48 39 -56 41 -11 72 5 72 36 0 44 -32 116 -65 145 -20 17 -54 33 -85 40 -66 14 -58 15 -121 -16z"/> <path d="M1337 1017 c-12 -12 -16 -25 -11 -40 4 -12 6 -145 6 -296 -1 -151 2 -279 7 -285 6 -7 62 -11 152 -11 l143 0 7 28 c9 34 -3 72 -25 80 -8 3 -41 2 -73 -3 -32 -5 -71 -6 -88 -2 -30 8 -30 8 -33 92 -2 60 1 86 10 92 7 4 48 5 90 2 88 -7 108 1 108 46 0 44 -21 54 -104 46 -104 -9 -106 -8 -106 79 0 95 6 100 113 91 45 -3 87 -3 94 2 20 13 25 55 9 77 -13 18 -26 20 -148 20 -115 0 -135 -2 -151 -18z"/> <path d="M4001 1031 c-8 -6 -12 -92 -13 -325 -1 -341 -2 -335 49 -336 13 0 29 10 38 24 13 20 14 39 5 135 -14 149 -11 154 81 149 38 -2 74 -9 80 -15 9 -9 12 -54 10 -147 l-2 -135 26 -7 c15 -4 38 -1 51 5 l25 11 -3 128 c-4 111 -7 133 -26 164 -27 43 -27 53 -3 84 62 78 15 230 -77 253 -50 12 -226 21 -241 12z m190 -92 c47 -15 69 -44 69 -89 0 -61 -25 -83 -102 -88 -82 -5 -90 3 -86 94 3 62 6 70 28 81 31 16 48 16 91 2z"/> <path d="M4612 1025 c-7 -11 -13 -602 -6 -625 3 -14 27 -16 150 -15 143 0 147 1 155 23 10 27 1 79 -15 85 -6 2 -45 0 -86 -4 -109 -10 -123 -2 -125 81 0 36 3 76 7 88 8 23 10 24 93 17 93 -8 115 0 115 41 0 45 -25 56 -119 52 l-86 -3 -8 51 c-4 29 -4 67 1 85 l9 34 103 0 c99 0 103 1 112 24 5 14 5 35 0 50 l-9 26 -142 0 c-83 0 -145 -4 -149 -10z"/> <path d="M5171 1015 c-3 -11 -4 -157 -1 -324 l5 -304 140 -2 c78 -1 146 2 153 8 6 5 12 29 12 53 0 53 -10 57 -113 44 -72 -9 -106 -6 -108 9 -6 37 -4 150 3 164 8 16 18 17 92 11 70 -5 85 -4 99 10 20 20 21 39 6 68 -10 19 -17 20 -99 14 -105 -9 -109 -5 -106 89 3 89 3 89 114 81 74 -6 97 -4 103 6 11 16 11 69 1 84 -5 8 -54 11 -151 10 -134 -1 -144 -2 -150 -21z"/> </g> </svg> 